<?xml version="1.0" standalone="no"?><!DOCTYPE svg PUBLIC "-//W3C//DTD SVG 1.1//EN" "http://www.w3.org/Graphics/SVG/1.1/DTD/svg11.dtd"><svg t="1723716678181" class="icon" viewBox="0 0 1024 1024" version="1.1" xmlns="http://www.w3.org/2000/svg" p-id="14688" data-spm-anchor-id="a313x.search_index.0.i29.4f793a81i2C3uU" xmlns:xlink="http://www.w3.org/1999/xlink" width="200" height="200"><path d="M570.47 213.59a8.755 8.755 0 0 0-7.527-9.433 987.956 987.956 0 0 0-115.354-6.247c-129.041 0-303.36 21.845-400.555 125.679A122.88 122.88 0 0 0 8.717 428.957c12.885 82.244 115.2 139.759 119.6 142.165l4.233 1.126 4.4-1.195 49.6-28.792a8.636 8.636 0 0 0 4.318-7.68 8.533 8.533 0 0 0-4.471-7.526c-0.887-0.563-92.4-52-108.083-114.005a66.833 66.833 0 0 1 9.2-54.886c80.882-127.2 359.12-137.047 442.491-137.047 19.678 0 31.283 0.478 31.352 0.478a8.533 8.533 0 0 0 9.114-8z" fill="#bfbfbf" p-id="14689" data-spm-anchor-id="a313x.search_index.0.i30.4f793a81i2C3uU" class=""></path><path d="M1015.91 468.276c-8.806-77.841-91.034-142.163-94.566-144.879a8.533 8.533 0 0 0-8.312-1.195l-38.792 15.36a8.5 8.5 0 0 0-1.86 14.746c1.195 0.887 124.962 92.16 80.213 171.2-67.448 119.121-299.367 128.388-368.794 128.388-16.4 0-26.078-0.478-26.078-0.478a8.449 8.449 0 0 0-1.758 16.795 730.231 730.231 0 0 0 98.475 6.076c108 0 253.679-20.634 334.4-118.8a113.186 113.186 0 0 0 27.068-87.211z" fill="#bfbfbf" p-id="14690" data-spm-anchor-id="a313x.search_index.0.i31.4f793a81i2C3uU" class=""></path><path d="M672.307 242.535l-48.554 79.923a17.988 17.988 0 0 0 20 26.795l89.839-23.893 60.006 71.049a18.142 18.142 0 0 0 13.841 6.4 19.575 19.575 0 0 0 5.683-0.887 18.091 18.091 0 0 0 12.305-16.026l6.007-93.355 85.2-34.884a18.057 18.057 0 0 0 0-33.434l-86.084-34.884-7.765-91.682a18.074 18.074 0 0 0-12.562-15.685 17.869 17.869 0 0 0-19.287 5.683l-58.88 70.793-90.556-20.8a18.039 18.039 0 0 0-19.2 27.307z" fill="#f4ea2a" p-id="14691" data-spm-anchor-id="a313x.search_index.0.i34.4f793a81i2C3uU" class=""></path><path d="M389.921 645.274l44.373-80.725a18.04 18.04 0 0 0-21.129-25.924l-88.883 26.965-63.675-66.407a18.022 18.022 0 0 0-31.044 12.237l-1.195 92.006-83.524 40.96a18.04 18.04 0 0 0 2.321 33.365l87.518 28.723 12.561 92.639a18.039 18.039 0 0 0 13.432 15.121l4.4 0.563a18.073 18.073 0 0 0 14.643-7.441l54.886-75.093 91.307 17.271a18.074 18.074 0 0 0 18.074-28.245z" fill="#f4ea2a" p-id="14692" data-spm-anchor-id="a313x.search_index.0.i33.4f793a81i2C3uU" class=""></path><path d="M789.674 147.986l5.6 67.516 63.37 25.6-62.805 25.6-4.495 68.727-44.336-52.243-66.407 17.6 35.84-58.88-36.847-57.039 66.56 15.206z" fill="#FCC21B" p-id="14693" data-spm-anchor-id="a313x.search_index.0.i36.4f793a81i2C3uU" class="selected"></path><path d="M277.759 746.463l-9.2-68.267-64.562-21.163 61.44-30 0.887-67.84 46.9 48.964 65.246-19.951-32.648 59.528 39.834 56.167-67.311-12.783z" fill="#FCC21B" p-id="14694" data-spm-anchor-id="a313x.search_index.0.i35.4f793a81i2C3uU" class="selected"></path></svg>